{
  "accessors": [
    {
      "bufferView": 0,
      "componentType": 5126,
      "type": "VEC3",
      "count": 2170,
      "min": [-0.763673127, -0.0242074747, -0.391503185],
      "max": [0.927642167, 3.66624737, 1.92440701]
    },
    {
      "bufferView": 1,
      "componentType": 5126,
      "type": "VEC2",
      "count": 2170
    },
    {
      "bufferView": 2,
      "componentType": 5126,
      "type": "VEC3",
      "count": 2170
    },
    {
      "bufferView": 3,
      "componentType": 5126,
      "type": "VEC3",
      "count": 2170
    },
    {
      "bufferView": 4,
      "componentType": 5125,
      "type": "SCALAR",
      "count": 9720
    }
  ],
  "asset": {
    "generator": "SideFX Houdini",
    "version": "2.0"
  },
  "bufferViews": [
    {
      "buffer": 0,
      "byteLength": 26040
    },
    {
      "buffer": 0,
      "byteLength": 26040,
      "byteOffset": 26040
    },
    {
      "buffer": 0,
      "byteLength": 26040,
      "byteOffset": 52080
    },
    {
      "buffer": 0,
      "byteLength": 26040,
      "byteOffset": 78120
    },
    {
      "buffer": 0,
      "byteLength": 38880,
      "byteOffset": 104160
    }
  ],
  "buffers": [
    {
      "uri": "tree_small_02.lod.trunk_data.bin",
      "byteLength": 143040
    }
  ],
  "meshes": [
    {
      "primitives": [
        {
          "indices": 4,
          "attributes": {
            "POSITION": 0,
            "TEXCOORD_0": 1,
            "NORMAL": 2,
            "TANGENT": 3
          }
        }
      ]
    }
  ],
  "nodes": [
    {
      "mesh": 0
    }
  ],
  "scene": 0,
  "scenes": [
    {
      "nodes": [ 0 ]
    }
  ]
}
