{
  "accessors": [
    {
      "bufferView": 0,
      "componentType": 5126,
      "type": "VEC3",
      "count": 70874,
      "min": [-1.29936802, 1.51307189, -1.34426093],
      "max": [1.58244598, 4.5196414, 2.84914899]
    },
    {
      "bufferView": 1,
      "componentType": 5126,
      "type": "VEC2",
      "count": 70874
    },
    {
      "bufferView": 2,
      "componentType": 5126,
      "type": "VEC3",
      "count": 70874
    },
    {
      "bufferView": 3,
      "componentType": 5126,
      "type": "VEC3",
      "count": 70874
    },
    {
      "bufferView": 4,
      "componentType": 5125,
      "type": "SCALAR",
      "count": 156978
    }
  ],
  "asset": {
    "generator": "SideFX Houdini",
    "version": "2.0"
  },
  "bufferViews": [
    {
      "buffer": 0,
      "byteLength": 850488
    },
    {
      "buffer": 0,
      "byteLength": 850488,
      "byteOffset": 850488
    },
    {
      "buffer": 0,
      "byteLength": 850488,
      "byteOffset": 1700976
    },
    {
      "buffer": 0,
      "byteLength": 850488,
      "byteOffset": 2551464
    },
    {
      "buffer": 0,
      "byteLength": 627912,
      "byteOffset": 3401952
    }
  ],
  "buffers": [
    {
      "uri": "tree_small_02.lod.leaves_data.bin",
      "byteLength": 4029864
    }
  ],
  "meshes": [
    {
      "primitives": [
        {
          "indices": 4,
          "attributes": {
            "POSITION": 0,
            "TEXCOORD_0": 1,
            "NORMAL": 2,
            "TANGENT": 3
          }
        }
      ]
    }
  ],
  "nodes": [
    {
      "mesh": 0
    }
  ],
  "scene": 0,
  "scenes": [
    {
      "nodes": [ 0 ]
    }
  ]
}
