{
  "accessors": [
    {
      "bufferView": 0,
      "componentType": 5126,
      "type": "VEC3",
      "count": 5174,
      "min": [-1.0814569, 1.63503921, -1.24180865],
      "max": [1.38746905, 4.38259649, 2.75843644]
    },
    {
      "bufferView": 1,
      "componentType": 5126,
      "type": "VEC2",
      "count": 5174
    },
    {
      "bufferView": 2,
      "componentType": 5126,
      "type": "VEC3",
      "count": 5174
    },
    {
      "bufferView": 3,
      "componentType": 5126,
      "type": "VEC3",
      "count": 5174
    },
    {
      "bufferView": 4,
      "componentType": 5125,
      "type": "SCALAR",
      "count": 13302
    }
  ],
  "asset": {
    "generator": "SideFX Houdini",
    "version": "2.0"
  },
  "bufferViews": [
    {
      "buffer": 0,
      "byteLength": 62088
    },
    {
      "buffer": 0,
      "byteLength": 62088,
      "byteOffset": 62088
    },
    {
      "buffer": 0,
      "byteLength": 62088,
      "byteOffset": 124176
    },
    {
      "buffer": 0,
      "byteLength": 62088,
      "byteOffset": 186264
    },
    {
      "buffer": 0,
      "byteLength": 53208,
      "byteOffset": 248352
    }
  ],
  "buffers": [
    {
      "uri": "tree_small_02.lod.branches_data.bin",
      "byteLength": 301560
    }
  ],
  "meshes": [
    {
      "primitives": [
        {
          "indices": 4,
          "attributes": {
            "POSITION": 0,
            "TEXCOORD_0": 1,
            "NORMAL": 2,
            "TANGENT": 3
          }
        }
      ]
    }
  ],
  "nodes": [
    {
      "mesh": 0
    }
  ],
  "scene": 0,
  "scenes": [
    {
      "nodes": [ 0 ]
    }
  ]
}
