{
  "accessors": [
    {
      "bufferView": 0,
      "componentType": 5126,
      "type": "VEC3",
      "count": 1453,
      "min": [-0.0704151466, -0.0144849205, -0.0449789129],
      "max": [0.0764600262, 0.0568833686, 0.0443498194]
    },
    {
      "bufferView": 1,
      "componentType": 5126,
      "type": "VEC2",
      "count": 1453
    },
    {
      "bufferView": 2,
      "componentType": 5126,
      "type": "VEC3",
      "count": 1453
    },
    {
      "bufferView": 3,
      "componentType": 5126,
      "type": "VEC3",
      "count": 1453
    },
    {
      "bufferView": 4,
      "componentType": 5125,
      "type": "SCALAR",
      "count": 7500
    }
  ],
  "asset": {
    "generator": "SideFX Houdini",
    "version": "2.0"
  },
  "bufferViews": [
    {
      "buffer": 0,
      "byteLength": 17436
    },
    {
      "buffer": 0,
      "byteLength": 17436,
      "byteOffset": 17436
    },
    {
      "buffer": 0,
      "byteLength": 17436,
      "byteOffset": 34872
    },
    {
      "buffer": 0,
      "byteLength": 17436,
      "byteOffset": 52308
    },
    {
      "buffer": 0,
      "byteLength": 30000,
      "byteOffset": 69744
    }
  ],
  "buffers": [
    {
      "uri": "stone_01.lod.stone_01_data.bin",
      "byteLength": 99744
    }
  ],
  "meshes": [
    {
      "primitives": [
        {
          "indices": 4,
          "attributes": {
            "POSITION": 0,
            "TEXCOORD_0": 1,
            "NORMAL": 2,
            "TANGENT": 3
          }
        }
      ]
    }
  ],
  "nodes": [
    {
      "mesh": 0
    }
  ],
  "scene": 0,
  "scenes": [
    {
      "nodes": [ 0 ]
    }
  ]
}
