{
  "accessors": [
    {
      "bufferView": 0,
      "componentType": 5126,
      "type": "VEC3",
      "count": 17029,
      "min": [-2.04229355, 1.28405333, -0.988506615],
      "max": [2.14457464, 3.31612134, 2.89035201]
    },
    {
      "bufferView": 1,
      "componentType": 5126,
      "type": "VEC2",
      "count": 17029
    },
    {
      "bufferView": 2,
      "componentType": 5126,
      "type": "VEC3",
      "count": 17029
    },
    {
      "bufferView": 3,
      "componentType": 5126,
      "type": "VEC3",
      "count": 17029
    },
    {
      "bufferView": 4,
      "componentType": 5125,
      "type": "SCALAR",
      "count": 48018
    }
  ],
  "asset": {
    "generator": "SideFX Houdini",
    "version": "2.0"
  },
  "bufferViews": [
    {
      "buffer": 0,
      "byteLength": 204348
    },
    {
      "buffer": 0,
      "byteLength": 204348,
      "byteOffset": 204348
    },
    {
      "buffer": 0,
      "byteLength": 204348,
      "byteOffset": 408696
    },
    {
      "buffer": 0,
      "byteLength": 204348,
      "byteOffset": 613044
    },
    {
      "buffer": 0,
      "byteLength": 192072,
      "byteOffset": 817392
    }
  ],
  "buffers": [
    {
      "uri": "island_tree_02.lod.branches_data.bin",
      "byteLength": 1009464
    }
  ],
  "meshes": [
    {
      "primitives": [
        {
          "indices": 4,
          "attributes": {
            "POSITION": 0,
            "TEXCOORD_0": 1,
            "NORMAL": 2,
            "TANGENT": 3
          }
        }
      ]
    }
  ],
  "nodes": [
    {
      "mesh": 0
    }
  ],
  "scene": 0,
  "scenes": [
    {
      "nodes": [ 0 ]
    }
  ]
}
