{
  "accessors": [
    {
      "bufferView": 0,
      "componentType": 5126,
      "type": "VEC3",
      "count": 73814,
      "min": [-0.17514582, 0.41180861, -1.23686767],
      "max": [2.14889288, 2.60197163, 1.66975296]
    },
    {
      "bufferView": 1,
      "componentType": 5126,
      "type": "VEC2",
      "count": 73814
    },
    {
      "bufferView": 2,
      "componentType": 5126,
      "type": "VEC3",
      "count": 73814
    },
    {
      "bufferView": 3,
      "componentType": 5126,
      "type": "VEC3",
      "count": 73814
    },
    {
      "bufferView": 4,
      "componentType": 5125,
      "type": "SCALAR",
      "count": 81177
    }
  ],
  "asset": {
    "generator": "SideFX Houdini",
    "version": "2.0"
  },
  "bufferViews": [
    {
      "buffer": 0,
      "byteLength": 885768
    },
    {
      "buffer": 0,
      "byteLength": 885768,
      "byteOffset": 885768
    },
    {
      "buffer": 0,
      "byteLength": 885768,
      "byteOffset": 1771536
    },
    {
      "buffer": 0,
      "byteLength": 885768,
      "byteOffset": 2657304
    },
    {
      "buffer": 0,
      "byteLength": 324708,
      "byteOffset": 3543072
    }
  ],
  "buffers": [
    {
      "uri": "island_tree_03.lod.leaves_data.bin",
      "byteLength": 3867780
    }
  ],
  "meshes": [
    {
      "primitives": [
        {
          "indices": 4,
          "attributes": {
            "POSITION": 0,
            "TEXCOORD_0": 1,
            "NORMAL": 2,
            "TANGENT": 3
          }
        }
      ]
    }
  ],
  "nodes": [
    {
      "mesh": 0
    }
  ],
  "scene": 0,
  "scenes": [
    {
      "nodes": [ 0 ]
    }
  ]
}
