{
  "accessors": [
    {
      "bufferView": 0,
      "componentType": 5126,
      "type": "VEC3",
      "count": 24421,
      "min": [-0.157432184, 0.451585472, -1.22173536],
      "max": [2.11679196, 2.56886744, 1.6312058]
    },
    {
      "bufferView": 1,
      "componentType": 5126,
      "type": "VEC2",
      "count": 24421
    },
    {
      "bufferView": 2,
      "componentType": 5126,
      "type": "VEC3",
      "count": 24421
    },
    {
      "bufferView": 3,
      "componentType": 5126,
      "type": "VEC3",
      "count": 24421
    },
    {
      "bufferView": 4,
      "componentType": 5125,
      "type": "SCALAR",
      "count": 61764
    }
  ],
  "asset": {
    "generator": "SideFX Houdini",
    "version": "2.0"
  },
  "bufferViews": [
    {
      "buffer": 0,
      "byteLength": 293052
    },
    {
      "buffer": 0,
      "byteLength": 293052,
      "byteOffset": 293052
    },
    {
      "buffer": 0,
      "byteLength": 293052,
      "byteOffset": 586104
    },
    {
      "buffer": 0,
      "byteLength": 293052,
      "byteOffset": 879156
    },
    {
      "buffer": 0,
      "byteLength": 247056,
      "byteOffset": 1172208
    }
  ],
  "buffers": [
    {
      "uri": "island_tree_03.lod.branches_data.bin",
      "byteLength": 1419264
    }
  ],
  "meshes": [
    {
      "primitives": [
        {
          "indices": 4,
          "attributes": {
            "POSITION": 0,
            "TEXCOORD_0": 1,
            "NORMAL": 2,
            "TANGENT": 3
          }
        }
      ]
    }
  ],
  "nodes": [
    {
      "mesh": 0
    }
  ],
  "scene": 0,
  "scenes": [
    {
      "nodes": [ 0 ]
    }
  ]
}
