{
  "accessors": [
    {
      "bufferView": 0,
      "componentType": 5126,
      "type": "VEC3",
      "count": 8196,
      "min": [-0.149333268, -0.0226178262, -0.149801284],
      "max": [0.165127814, 0.316968411, 0.165987119]
    },
    {
      "bufferView": 1,
      "componentType": 5126,
      "type": "VEC2",
      "count": 8196
    },
    {
      "bufferView": 2,
      "componentType": 5126,
      "type": "VEC3",
      "count": 8196
    },
    {
      "bufferView": 3,
      "componentType": 5126,
      "type": "VEC3",
      "count": 8196
    },
    {
      "bufferView": 4,
      "componentType": 5125,
      "type": "SCALAR",
      "count": 18000
    }
  ],
  "asset": {
    "generator": "SideFX Houdini",
    "version": "2.0"
  },
  "bufferViews": [
    {
      "buffer": 0,
      "byteLength": 98352
    },
    {
      "buffer": 0,
      "byteLength": 98352,
      "byteOffset": 98352
    },
    {
      "buffer": 0,
      "byteLength": 98352,
      "byteOffset": 196704
    },
    {
      "buffer": 0,
      "byteLength": 98352,
      "byteOffset": 295056
    },
    {
      "buffer": 0,
      "byteLength": 72000,
      "byteOffset": 393408
    }
  ],
  "buffers": [
    {
      "uri": "grass_medium_01.lod.grass_medium_01_data.bin",
      "byteLength": 465408
    }
  ],
  "meshes": [
    {
      "primitives": [
        {
          "indices": 4,
          "attributes": {
            "POSITION": 0,
            "TEXCOORD_0": 1,
            "NORMAL": 2,
            "TANGENT": 3
          }
        }
      ]
    }
  ],
  "nodes": [
    {
      "mesh": 0
    }
  ],
  "scene": 0,
  "scenes": [
    {
      "nodes": [ 0 ]
    }
  ]
}
