{
  "accessors": [
    {
      "bufferView": 0,
      "componentType": 5126,
      "type": "VEC3",
      "count": 1183,
      "min": [-0.243787542, -6.50681541e-05, -0.341131687],
      "max": [0.28633827, 0.471661299, 0.258633167]
    },
    {
      "bufferView": 1,
      "componentType": 5126,
      "type": "VEC2",
      "count": 1183
    },
    {
      "bufferView": 2,
      "componentType": 5126,
      "type": "VEC3",
      "count": 1183
    },
    {
      "bufferView": 3,
      "componentType": 5126,
      "type": "VEC3",
      "count": 1183
    },
    {
      "bufferView": 4,
      "componentType": 5125,
      "type": "SCALAR",
      "count": 2514
    }
  ],
  "asset": {
    "generator": "SideFX Houdini",
    "version": "2.0"
  },
  "bufferViews": [
    {
      "buffer": 0,
      "byteLength": 14196
    },
    {
      "buffer": 0,
      "byteLength": 14196,
      "byteOffset": 14196
    },
    {
      "buffer": 0,
      "byteLength": 14196,
      "byteOffset": 28392
    },
    {
      "buffer": 0,
      "byteLength": 14196,
      "byteOffset": 42588
    },
    {
      "buffer": 0,
      "byteLength": 10056,
      "byteOffset": 56784
    }
  ],
  "buffers": [
    {
      "uri": "wild_rooibos_bush.lod.wild_rooibos_bush_data.bin",
      "byteLength": 66840
    }
  ],
  "meshes": [
    {
      "primitives": [
        {
          "indices": 4,
          "attributes": {
            "POSITION": 0,
            "TEXCOORD_0": 1,
            "NORMAL": 2,
            "TANGENT": 3
          }
        }
      ]
    }
  ],
  "nodes": [
    {
      "mesh": 0
    }
  ],
  "scene": 0,
  "scenes": [
    {
      "nodes": [ 0 ]
    }
  ]
}
