{
  "accessors": [
    {
      "bufferView": 0,
      "componentType": 5126,
      "type": "VEC3",
      "count": 13296,
      "min": [-0.350209892, 0.0158944093, -0.440390199],
      "max": [0.333389491, 0.53088212, 0.306447327]
    },
    {
      "bufferView": 1,
      "componentType": 5126,
      "type": "VEC2",
      "count": 13296
    },
    {
      "bufferView": 2,
      "componentType": 5126,
      "type": "VEC3",
      "count": 13296
    },
    {
      "bufferView": 3,
      "componentType": 5126,
      "type": "VEC3",
      "count": 13296
    },
    {
      "bufferView": 4,
      "componentType": 5125,
      "type": "SCALAR",
      "count": 19824
    }
  ],
  "asset": {
    "generator": "SideFX Houdini",
    "version": "2.0"
  },
  "bufferViews": [
    {
      "buffer": 0,
      "byteLength": 159552
    },
    {
      "buffer": 0,
      "byteLength": 159552,
      "byteOffset": 159552
    },
    {
      "buffer": 0,
      "byteLength": 159552,
      "byteOffset": 319104
    },
    {
      "buffer": 0,
      "byteLength": 159552,
      "byteOffset": 478656
    },
    {
      "buffer": 0,
      "byteLength": 79296,
      "byteOffset": 638208
    }
  ],
  "buffers": [
    {
      "uri": "wild_rooibos_bush.lod.leaves_data.bin",
      "byteLength": 717504
    }
  ],
  "meshes": [
    {
      "primitives": [
        {
          "indices": 4,
          "attributes": {
            "POSITION": 0,
            "TEXCOORD_0": 1,
            "NORMAL": 2,
            "TANGENT": 3
          }
        }
      ]
    }
  ],
  "nodes": [
    {
      "mesh": 0
    }
  ],
  "scene": 0,
  "scenes": [
    {
      "nodes": [ 0 ]
    }
  ]
}
