{
  "accessors": [
    {
      "bufferView": 0,
      "componentType": 5126,
      "type": "VEC3",
      "count": 10880,
      "min": [-2.454355, -0.00877753273, -0.113877282],
      "max": [0.131462306, 0.386648536, 0.104772337]
    },
    {
      "bufferView": 1,
      "componentType": 5126,
      "type": "VEC2",
      "count": 10880
    },
    {
      "bufferView": 2,
      "componentType": 5126,
      "type": "VEC3",
      "count": 10880
    },
    {
      "bufferView": 3,
      "componentType": 5126,
      "type": "VEC3",
      "count": 10880
    },
    {
      "bufferView": 4,
      "componentType": 5125,
      "type": "SCALAR",
      "count": 36000
    }
  ],
  "asset": {
    "generator": "SideFX Houdini",
    "version": "2.0"
  },
  "bufferViews": [
    {
      "buffer": 0,
      "byteLength": 130560
    },
    {
      "buffer": 0,
      "byteLength": 130560,
      "byteOffset": 130560
    },
    {
      "buffer": 0,
      "byteLength": 130560,
      "byteOffset": 261120
    },
    {
      "buffer": 0,
      "byteLength": 130560,
      "byteOffset": 391680
    },
    {
      "buffer": 0,
      "byteLength": 144000,
      "byteOffset": 522240
    }
  ],
  "buffers": [
    {
      "uri": "shrub_01.lod.shrub_01_data.bin",
      "byteLength": 666240
    }
  ],
  "meshes": [
    {
      "primitives": [
        {
          "indices": 4,
          "attributes": {
            "POSITION": 0,
            "TEXCOORD_0": 1,
            "NORMAL": 2,
            "TANGENT": 3
          }
        }
      ]
    }
  ],
  "nodes": [
    {
      "mesh": 0
    }
  ],
  "scene": 0,
  "scenes": [
    {
      "nodes": [ 0 ]
    }
  ]
}
