{
  "accessors": [
    {
      "bufferView": 0,
      "componentType": 5126,
      "type": "VEC3",
      "count": 67457,
      "min": [-2.32962871, 1.1960026, -2.57647347],
      "max": [2.41305161, 5.00964594, 2.22901917]
    },
    {
      "bufferView": 1,
      "componentType": 5126,
      "type": "VEC2",
      "count": 67457
    },
    {
      "bufferView": 2,
      "componentType": 5126,
      "type": "VEC3",
      "count": 67457
    },
    {
      "bufferView": 3,
      "componentType": 5126,
      "type": "VEC3",
      "count": 67457
    },
    {
      "bufferView": 4,
      "componentType": 5125,
      "type": "SCALAR",
      "count": 81684
    }
  ],
  "asset": {
    "generator": "SideFX Houdini",
    "version": "2.0"
  },
  "bufferViews": [
    {
      "buffer": 0,
      "byteLength": 809484
    },
    {
      "buffer": 0,
      "byteLength": 809484,
      "byteOffset": 809484
    },
    {
      "buffer": 0,
      "byteLength": 809484,
      "byteOffset": 1618968
    },
    {
      "buffer": 0,
      "byteLength": 809484,
      "byteOffset": 2428452
    },
    {
      "buffer": 0,
      "byteLength": 326736,
      "byteOffset": 3237936
    }
  ],
  "buffers": [
    {
      "uri": "island_tree_01.lod.leaves_data.bin",
      "byteLength": 3564672
    }
  ],
  "meshes": [
    {
      "primitives": [
        {
          "indices": 4,
          "attributes": {
            "POSITION": 0,
            "TEXCOORD_0": 1,
            "NORMAL": 2,
            "TANGENT": 3
          }
        }
      ]
    }
  ],
  "nodes": [
    {
      "mesh": 0
    }
  ],
  "scene": 0,
  "scenes": [
    {
      "nodes": [ 0 ]
    }
  ]
}
